<svg width="159" height="170" viewBox="0 0 159 170" fill="none" xmlns="http://www.w3.org/2000/svg">
<path d="M45.0288 96.6211C48.2974 95.4562 51.8846 96.5024 54.8804 98.0557C57.629 99.7181 60.1621 102 61.7983 104.922V105.586C62.239 105.563 62.2395 105.564 62.689 105.54C71.389 105.228 79.1001 109.094 85.7104 114.883C85.9807 115.113 86.2514 115.343 86.5298 115.58C88.7619 117.564 90.1504 119.763 90.4761 122.877C90.6241 126.539 89.6917 129.223 88.1948 132.48C88.0969 132.7 87.9998 132.92 87.8989 133.146C83.8189 142.21 77.0933 148.228 68.5669 152.203C67.5591 152.821 67.0807 153.457 66.3989 154.457C63.3097 158.645 58.9258 160.935 54.0347 161.699C49.1476 162.127 49.1472 162.127 47.2026 160.371C46.1214 159.156 45.8801 158.226 45.8442 156.595C45.8972 155.002 46.1517 153.593 46.5815 152.07C46.3783 152.013 46.1747 151.955 45.9653 151.896C43.4491 151.173 40.963 150.361 38.4771 149.528C38.1733 149.428 37.8691 149.327 37.5562 149.224C37.2839 149.133 37.0115 149.042 36.731 148.948C35.9953 148.709 35.9945 148.708 35.0913 148.75C34.6508 149.325 34.6511 149.325 34.2573 150.078C31.7699 154.241 28.5698 156.295 24.1265 157.445C17.9028 158.91 17.9029 158.91 15.4438 157.445C14.4646 156.727 14.0818 155.993 13.8618 154.753C13.6392 152.874 13.7278 151.213 14.0327 149.353C14.0749 149.081 14.1172 148.808 14.1606 148.528C14.5549 146.108 15.1544 143.791 15.8374 141.445C15.9446 141.004 16.0499 140.561 16.1479 140.117C16.0012 139.988 15.8539 139.859 15.7026 139.726C12.5828 136.904 8.08338 132.384 7.6665 127.749C7.77973 126.297 8.06969 125.255 9.00537 124.18C13.5784 120.997 19.3894 120.018 24.7104 121.082C26.6625 121.693 28.198 122.717 29.7944 124.051C30.4334 124.605 30.4337 124.605 31.3647 124.512C31.8813 124.072 31.8815 124.072 32.3765 123.467C32.5695 123.244 32.7626 123.021 32.9614 122.792C33.2663 122.431 33.2666 122.431 33.5776 122.063C33.9977 121.57 34.4182 121.076 34.8384 120.582C35.0416 120.342 35.2452 120.102 35.4546 119.854C35.9217 119.317 36.4119 118.802 36.9077 118.294C38.5614 116.576 39.1604 114.995 39.6069 112.623C40.018 110.493 40.813 108.754 41.772 106.846C42.6958 104.992 42.6345 103.256 42.7075 101.19C42.9379 99.2466 43.63 97.883 45.0288 96.6211ZM51.8608 155.723C52.5212 155.629 53.1817 155.532 53.8413 155.433C54.3922 155.352 54.3923 155.352 54.9546 155.27C55.9281 155.149 55.9277 155.148 56.519 154.395C55.0845 154.175 53.6494 153.956 52.1714 153.73C52.0689 154.388 51.9664 155.045 51.8608 155.723ZM80.3188 118.045C72.4768 112.086 62.7444 109.471 53.4136 112.891C52.9244 113.065 52.9245 113.066 52.4253 113.244C46.2664 115.71 41.5991 121.359 37.4263 126.596C36.7618 127.403 36.0462 128.148 35.3208 128.893C34.7598 129.491 34.759 129.491 34.27 130.228C33.003 132.033 33.0033 132.034 31.8345 132.375C30.4973 132.447 29.7534 132.36 28.687 131.464C28.4436 131.142 28.1995 130.82 27.9487 130.488C25.8267 128.136 23.4924 126.821 20.3989 126.67C18.2785 126.749 16.2867 127.464 14.2847 128.164C14.7588 129.773 15.6164 130.857 16.6333 132.107C16.7988 132.313 16.9648 132.519 17.1353 132.731C18.2738 134.116 19.4532 135.284 20.8862 136.322C21.7285 137.061 21.9947 137.764 22.1636 138.902C22.2182 141.185 21.7292 142.844 20.9038 144.935C20.121 147.162 19.564 149.69 19.564 152.07C23.2689 151.421 26.5732 150.76 29.0454 147.463C29.8575 146.209 30.5884 144.903 30.8813 143.397C31.0547 142.774 31.0545 142.774 31.8501 142.172C34.1562 141.32 36.556 142.429 38.7856 143.196C39.1048 143.304 39.4236 143.412 39.7524 143.523C40.7678 143.866 41.783 144.212 42.7974 144.559C43.8085 144.902 44.82 145.245 45.8315 145.587C46.4588 145.799 47.0857 146.012 47.7124 146.227C55.6864 148.935 61.9866 148.842 69.5854 144.939C71.5061 143.868 73.1889 142.606 74.8413 141.113C75.0903 140.895 75.3397 140.678 75.5962 140.453C79.2798 137.097 81.5737 133.161 83.5366 128.496C83.6783 128.164 83.8203 127.833 83.9663 127.491C84.8099 125.409 84.8097 125.408 84.7788 123.184C83.8574 121.176 82.6588 119.847 80.9751 118.557C80.7585 118.388 80.542 118.219 80.3188 118.045ZM48.7554 102.598C48.1611 103.233 48.2393 104.34 48.1343 105.192C47.8157 107.76 47.8156 107.76 47.5132 108.906C47.8782 108.776 48.2436 108.647 48.6196 108.513C50.7352 107.759 52.8508 107.004 54.9663 106.25C54.0695 104.897 53.2532 104.21 51.8608 103.49C51.5408 103.32 51.2208 103.151 50.8911 102.976C49.9658 102.517 49.965 102.516 48.7554 102.598Z" fill="#1E1E1E"/>
<path d="M45.0288 96.6211C48.2974 95.4562 51.8846 96.5024 54.8804 98.0557C57.629 99.7181 60.1621 102 61.7983 104.922V105.586C62.239 105.563 62.2395 105.564 62.689 105.54C71.389 105.228 79.1001 109.094 85.7104 114.883C85.9807 115.113 86.2514 115.343 86.5298 115.58C88.7619 117.564 90.1504 119.763 90.4761 122.877C90.6241 126.539 89.6917 129.223 88.1948 132.48C88.0969 132.7 87.9998 132.92 87.8989 133.146C83.8189 142.21 77.0933 148.228 68.5669 152.203C67.5591 152.821 67.0807 153.457 66.3989 154.457C63.3097 158.645 58.9258 160.935 54.0347 161.699C49.1476 162.127 49.1472 162.127 47.2026 160.371C46.1214 159.156 45.8801 158.226 45.8442 156.595C45.8972 155.002 46.1517 153.593 46.5815 152.07C46.3783 152.013 46.1747 151.955 45.9653 151.896C43.4491 151.173 40.963 150.361 38.4771 149.528C38.1733 149.428 37.8691 149.327 37.5562 149.224C37.2839 149.133 37.0115 149.042 36.731 148.948C35.9953 148.709 35.9945 148.708 35.0913 148.75C34.6508 149.325 34.6511 149.325 34.2573 150.078C31.7699 154.241 28.5698 156.295 24.1265 157.445C17.9028 158.91 17.9029 158.91 15.4438 157.445C14.4646 156.727 14.0818 155.993 13.8618 154.753C13.6392 152.874 13.7278 151.213 14.0327 149.353C14.0749 149.081 14.1172 148.808 14.1606 148.528C14.5549 146.108 15.1544 143.791 15.8374 141.445C15.9446 141.004 16.0499 140.561 16.1479 140.117C16.0012 139.988 15.8539 139.859 15.7026 139.726C12.5828 136.904 8.08338 132.384 7.6665 127.749C7.77973 126.297 8.06969 125.255 9.00537 124.18C13.5784 120.997 19.3894 120.018 24.7104 121.082C26.6625 121.693 28.198 122.717 29.7944 124.051C30.4334 124.605 30.4337 124.605 31.3647 124.512C31.8813 124.072 31.8815 124.072 32.3765 123.467C32.5695 123.244 32.7626 123.021 32.9614 122.792C33.2663 122.431 33.2666 122.431 33.5776 122.063C33.9977 121.57 34.4182 121.076 34.8384 120.582C35.0416 120.342 35.2452 120.102 35.4546 119.854C35.9217 119.317 36.4119 118.802 36.9077 118.294C38.5614 116.576 39.1604 114.995 39.6069 112.623C40.018 110.493 40.813 108.754 41.772 106.846C42.6958 104.992 42.6345 103.256 42.7075 101.19C42.9379 99.2466 43.63 97.883 45.0288 96.6211ZM51.8608 155.723C52.5212 155.629 53.1817 155.532 53.8413 155.433C54.3922 155.352 54.3923 155.352 54.9546 155.27C55.9281 155.149 55.9277 155.148 56.519 154.395C55.0845 154.175 53.6494 153.956 52.1714 153.73C52.0689 154.388 51.9664 155.045 51.8608 155.723ZM80.3188 118.045C72.4768 112.086 62.7444 109.471 53.4136 112.891C52.9244 113.065 52.9245 113.066 52.4253 113.244C46.2664 115.71 41.5991 121.359 37.4263 126.596C36.7618 127.403 36.0462 128.148 35.3208 128.893C34.7598 129.491 34.759 129.491 34.27 130.228C33.003 132.033 33.0033 132.034 31.8345 132.375C30.4973 132.447 29.7534 132.36 28.687 131.464C28.4436 131.142 28.1995 130.82 27.9487 130.488C25.8267 128.136 23.4924 126.821 20.3989 126.67C18.2785 126.749 16.2867 127.464 14.2847 128.164C14.7588 129.773 15.6164 130.857 16.6333 132.107C16.7988 132.313 16.9648 132.519 17.1353 132.731C18.2738 134.116 19.4532 135.284 20.8862 136.322C21.7285 137.061 21.9947 137.764 22.1636 138.902C22.2182 141.185 21.7292 142.844 20.9038 144.935C20.121 147.162 19.564 149.69 19.564 152.07C23.2689 151.421 26.5732 150.76 29.0454 147.463C29.8575 146.209 30.5884 144.903 30.8813 143.397C31.0547 142.774 31.0545 142.774 31.8501 142.172C34.1562 141.32 36.556 142.429 38.7856 143.196C39.1048 143.304 39.4236 143.412 39.7524 143.523C40.7678 143.866 41.783 144.212 42.7974 144.559C43.8085 144.902 44.82 145.245 45.8315 145.587C46.4588 145.799 47.0857 146.012 47.7124 146.227C55.6864 148.935 61.9866 148.842 69.5854 144.939C71.5061 143.868 73.1889 142.606 74.8413 141.113C75.0903 140.895 75.3397 140.678 75.5962 140.453C79.2798 137.097 81.5737 133.161 83.5366 128.496C83.6783 128.164 83.8203 127.833 83.9663 127.491C84.8099 125.409 84.8097 125.408 84.7788 123.184C83.8574 121.176 82.6588 119.847 80.9751 118.557C80.7585 118.388 80.542 118.219 80.3188 118.045ZM48.7554 102.598C48.1611 103.233 48.2393 104.34 48.1343 105.192C47.8157 107.76 47.8156 107.76 47.5132 108.906C47.8782 108.776 48.2436 108.647 48.6196 108.513C50.7352 107.759 52.8508 107.004 54.9663 106.25C54.0695 104.897 53.2532 104.21 51.8608 103.49C51.5408 103.32 51.2208 103.151 50.8911 102.976C49.9658 102.517 49.965 102.516 48.7554 102.598Z" stroke="#1E1E1E"/>
<path d="M5.55127 74.873C12.0479 69.9705 28.3059 76.572 35.2358 78.7178C40.6189 80.3686 46.0106 81.3851 51.6226 81.415C51.9158 81.4174 52.2091 81.4204 52.5112 81.4229C62.534 81.4852 71.1834 80.2727 80.8169 77.2207C91.9192 73.7211 103.755 73.1439 115.213 74.707C115.468 74.741 115.723 74.7756 115.986 74.8105C120.398 75.4397 124.618 76.7868 128.88 78.1094C132.982 79.3792 137.051 80.4662 141.299 81.0156C141.544 81.0474 141.788 81.0795 142.04 81.1123C144.428 81.3957 146.821 81.4464 149.223 81.4902C149.54 81.5005 149.858 81.5109 150.185 81.5215C150.469 81.5281 150.754 81.5352 151.046 81.542C152.31 81.7575 153.138 82.3846 154.032 83.3398C154.188 84.3483 154.171 85.3178 154.032 86.3281C153.349 87.3347 152.96 87.5954 151.858 87.9883C150.421 88.0268 148.984 87.9589 147.548 87.9053C147.338 87.8975 147.128 87.8898 146.912 87.8818C139.168 87.5813 131.878 85.8566 124.471 83.4648C119.041 81.7133 113.492 80.6432 107.814 80.6162C107.497 80.6143 107.179 80.6123 106.852 80.6104C106.181 80.6072 105.51 80.6058 104.839 80.6045C103.837 80.6013 102.835 80.5906 101.833 80.5801C96.3105 80.5497 90.8843 81.0228 85.5366 82.5723C85.2345 82.6555 84.9319 82.7385 84.6206 82.8242C82.9041 83.3022 81.1989 83.8166 79.4956 84.3457C72.3127 86.5646 65.2432 87.8528 57.7622 87.9883C57.3599 87.9977 56.957 88.0069 56.5425 88.0166C55.3949 88.0298 54.2513 88.0158 53.104 87.9883C52.8841 87.9841 52.6636 87.9799 52.437 87.9756C44.5529 87.798 37.0863 86.0942 29.5474 83.7256C23.1202 81.713 16.7595 80.5637 10.0503 80.46C9.73263 80.4541 9.41469 80.4484 9.0874 80.4424C8.80873 80.4404 8.52979 80.4386 8.24268 80.4365C7.12782 80.3168 6.24034 79.9619 5.34619 79.2402C4.72512 78.3371 4.82458 77.5062 4.85596 76.4209C4.96877 75.7037 4.96899 75.7031 5.55127 74.873Z" fill="#1E1E1E"/>
<path d="M5.55127 74.873C12.0479 69.9705 28.3059 76.572 35.2358 78.7178C40.6189 80.3686 46.0106 81.3851 51.6226 81.415C51.9158 81.4174 52.2091 81.4204 52.5112 81.4229C62.534 81.4852 71.1834 80.2727 80.8169 77.2207C91.9192 73.7211 103.755 73.1439 115.213 74.707C115.468 74.741 115.723 74.7756 115.986 74.8105C120.398 75.4397 124.618 76.7868 128.88 78.1094C132.982 79.3792 137.051 80.4662 141.299 81.0156C141.544 81.0474 141.788 81.0795 142.04 81.1123C144.428 81.3957 146.821 81.4464 149.223 81.4902C149.54 81.5005 149.858 81.5109 150.185 81.5215C150.469 81.5281 150.754 81.5352 151.046 81.542C152.31 81.7575 153.138 82.3846 154.032 83.3398C154.188 84.3483 154.171 85.3178 154.032 86.3281C153.349 87.3347 152.96 87.5954 151.858 87.9883C150.421 88.0268 148.984 87.9589 147.548 87.9053C147.338 87.8975 147.128 87.8898 146.912 87.8818C139.168 87.5813 131.878 85.8566 124.471 83.4648C119.041 81.7133 113.492 80.6432 107.814 80.6162C107.497 80.6143 107.179 80.6123 106.852 80.6104C106.181 80.6072 105.51 80.6058 104.839 80.6045C103.837 80.6013 102.835 80.5906 101.833 80.5801C96.3105 80.5497 90.8843 81.0228 85.5366 82.5723C85.2345 82.6555 84.9319 82.7385 84.6206 82.8242C82.9041 83.3022 81.1989 83.8166 79.4956 84.3457C72.3127 86.5646 65.2432 87.8528 57.7622 87.9883C57.3599 87.9977 56.957 88.0069 56.5425 88.0166C55.3949 88.0298 54.2513 88.0158 53.104 87.9883C52.8841 87.9841 52.6636 87.9799 52.437 87.9756C44.5529 87.798 37.0863 86.0942 29.5474 83.7256C23.1202 81.713 16.7595 80.5637 10.0503 80.46C9.73263 80.4541 9.41469 80.4484 9.0874 80.4424C8.80873 80.4404 8.52979 80.4386 8.24268 80.4365C7.12782 80.3168 6.24034 79.9619 5.34619 79.2402C4.72512 78.3371 4.82458 77.5062 4.85596 76.4209C4.96877 75.7037 4.96899 75.7031 5.55127 74.873Z" stroke="#1E1E1E"/>
<path d="M115.042 10.2354C118.085 7.90852 121.314 8.1106 124.894 8.13672C125.471 8.13667 126.048 8.13568 126.625 8.13477C127.828 8.13431 129.03 8.13889 130.233 8.14648C131.774 8.15594 133.315 8.15461 134.855 8.15039C136.044 8.14808 137.232 8.15115 138.421 8.15527C138.989 8.15677 139.557 8.15657 140.125 8.15527C140.918 8.15431 141.711 8.15975 142.504 8.16699C142.854 8.16475 142.854 8.1644 143.212 8.16211C144.591 8.18304 145.482 8.38473 146.578 9.29688C147.068 10.3453 147.143 11.4906 146.888 12.6172C146.038 13.7765 145.584 14.2335 144.207 14.4814C143.765 14.4881 143.322 14.4852 142.88 14.4756C142.516 14.4776 142.516 14.4774 142.145 14.4795C141.62 14.4813 141.095 14.48 140.57 14.4746C139.738 14.4662 138.907 14.4675 138.075 14.4717C136.309 14.4786 134.544 14.4722 132.778 14.4648C130.732 14.4578 128.687 14.4562 126.641 14.4648C125.824 14.466 125.006 14.4587 124.188 14.4512C123.685 14.452 123.181 14.4535 122.677 14.4551C122.452 14.4508 122.226 14.4468 121.993 14.4424C120.418 14.4589 119.527 14.8734 118.318 15.9375C117.581 17.1193 117.497 18.1328 117.351 19.5059C117.29 20.0292 117.229 20.5529 117.167 21.0762C117.073 21.8953 116.981 22.7145 116.891 23.5342C116.089 30.8207 113.566 35.3596 108.203 39.9277C106.316 41.5357 104.669 43.7513 104.363 46.3809C104.357 46.7437 104.35 47.1067 104.344 47.4805C106.352 47.2681 108.173 46.6265 110.085 45.9541C110.785 45.7129 111.487 45.4723 112.187 45.2314C113.283 44.8524 114.379 44.4715 115.473 44.0879C116.535 43.7166 117.6 43.3518 118.664 42.9873C118.987 42.8722 119.311 42.7563 119.644 42.6377C121.555 41.9883 123.448 41.4533 125.461 41.8359C126.619 42.5537 127.375 43.4013 128.1 44.5967C128.425 46.4628 128.374 47.7981 127.354 49.4121C126.477 50.5595 125.568 51.6627 124.609 52.7334C124.125 53.2695 124.124 53.2697 123.597 54.1211C123.612 55.2146 123.612 55.2153 123.908 56.1133C124.318 56.2228 124.728 56.3325 125.15 56.4453C125.83 55.6713 126.509 54.8962 127.188 54.1211C127.377 53.9059 127.567 53.6905 127.761 53.4688C128.721 52.3719 129.667 51.266 130.589 50.1318C131.67 48.8017 132.791 47.5158 133.924 46.2354C135.829 44.0716 135.83 44.0719 137.717 41.8887C138.13 41.4074 138.549 40.931 138.968 40.4551C139.767 39.5245 139.767 39.5242 140.427 38.4551C142.072 36.0509 142.072 36.0505 143.573 35.6826C148.171 35.1336 148.171 35.134 149.851 36.502C150.627 37.6752 150.747 38.4004 150.615 39.8438C150.227 40.7568 150.227 40.7569 149.373 41.5039C148.83 41.5421 148.287 41.568 147.743 41.5869C144.777 41.9819 143.081 44.8124 141.251 47.0996C140.486 48.0513 139.691 48.9684 138.892 49.8877C138.625 50.201 138.357 50.5151 138.082 50.8379C137.036 52.0617 135.984 53.279 134.931 54.4961C134.15 55.3997 133.371 56.3052 132.595 57.2139C132.444 57.3917 132.291 57.5697 132.135 57.7529C131.719 58.2403 131.303 58.728 130.887 59.2158C129.003 61.3805 127.745 62.7837 124.879 62.8994C122.665 62.8349 121.326 62.1553 119.638 60.6787C117.887 58.3902 117.557 56.6126 117.532 53.6445C117.682 52.5723 117.873 51.9966 118.329 51.0596C118.5 50.7058 118.499 50.7056 118.674 50.3447C118.761 50.1667 118.849 49.9881 118.939 49.8047C118.605 49.9253 118.27 50.0466 117.926 50.1709C116.665 50.6235 115.401 51.0671 114.136 51.5078C113.593 51.6986 113.05 51.8912 112.509 52.0869C104.97 54.8059 104.97 54.8058 101.78 53.3174C100.197 52.3434 99.0924 50.8922 98.3074 49.1406C97.713 45.7506 98.6064 42.7874 100.244 39.834C102.027 37.1186 104.146 34.8548 106.595 32.8301C108.701 31.0718 110.006 29.159 110.432 26.29C110.487 25.7984 110.539 25.3065 110.59 24.8145C110.651 24.2737 110.713 23.7331 110.775 23.1924C110.87 22.3477 110.962 21.5027 111.051 20.6572C111.694 14.5818 111.693 14.5811 113.349 12.2852C113.543 12.0126 113.736 11.7398 113.935 11.459C114.12 11.2592 114.305 11.0594 114.495 10.8535C114.675 10.6495 114.856 10.4456 115.042 10.2354Z" fill="#1E1E1E"/>
<path d="M115.042 10.2354C118.085 7.90852 121.314 8.1106 124.894 8.13672C125.471 8.13667 126.048 8.13568 126.625 8.13477C127.828 8.13431 129.03 8.13889 130.233 8.14648C131.774 8.15594 133.315 8.15461 134.855 8.15039C136.044 8.14808 137.232 8.15115 138.421 8.15527C138.989 8.15677 139.557 8.15657 140.125 8.15527C140.918 8.15431 141.711 8.15975 142.504 8.16699C142.854 8.16475 142.854 8.1644 143.212 8.16211C144.591 8.18304 145.482 8.38473 146.578 9.29688C147.068 10.3453 147.143 11.4906 146.888 12.6172C146.038 13.7765 145.584 14.2335 144.207 14.4814C143.765 14.4881 143.322 14.4852 142.88 14.4756C142.516 14.4776 142.516 14.4774 142.145 14.4795C141.62 14.4813 141.095 14.48 140.57 14.4746C139.738 14.4662 138.907 14.4675 138.075 14.4717C136.309 14.4786 134.544 14.4722 132.778 14.4648C130.732 14.4578 128.687 14.4562 126.641 14.4648C125.824 14.466 125.006 14.4587 124.188 14.4512C123.685 14.452 123.181 14.4535 122.677 14.4551C122.452 14.4508 122.226 14.4468 121.993 14.4424C120.418 14.4589 119.527 14.8734 118.318 15.9375C117.581 17.1193 117.497 18.1328 117.351 19.5059C117.29 20.0292 117.229 20.5529 117.167 21.0762C117.073 21.8953 116.981 22.7145 116.891 23.5342C116.089 30.8207 113.566 35.3596 108.203 39.9277C106.316 41.5357 104.669 43.7513 104.363 46.3809C104.357 46.7437 104.35 47.1067 104.344 47.4805C106.352 47.2681 108.173 46.6265 110.085 45.9541C110.785 45.7129 111.487 45.4723 112.187 45.2314C113.283 44.8524 114.379 44.4715 115.473 44.0879C116.535 43.7166 117.6 43.3518 118.664 42.9873C118.987 42.8722 119.311 42.7563 119.644 42.6377C121.555 41.9883 123.448 41.4533 125.461 41.8359C126.619 42.5537 127.375 43.4013 128.1 44.5967C128.425 46.4628 128.374 47.7981 127.354 49.4121C126.477 50.5595 125.568 51.6627 124.609 52.7334C124.125 53.2695 124.124 53.2697 123.597 54.1211C123.612 55.2146 123.612 55.2153 123.908 56.1133C124.318 56.2228 124.728 56.3325 125.15 56.4453C125.83 55.6713 126.509 54.8962 127.188 54.1211C127.377 53.9059 127.567 53.6905 127.761 53.4688C128.721 52.3719 129.667 51.266 130.589 50.1318C131.67 48.8017 132.791 47.5158 133.924 46.2354C135.829 44.0716 135.83 44.0719 137.717 41.8887C138.13 41.4074 138.549 40.931 138.968 40.4551C139.767 39.5245 139.767 39.5242 140.427 38.4551C142.072 36.0509 142.072 36.0505 143.573 35.6826C148.171 35.1336 148.171 35.134 149.851 36.502C150.627 37.6752 150.747 38.4004 150.615 39.8438C150.227 40.7568 150.227 40.7569 149.373 41.5039C148.83 41.5421 148.287 41.568 147.743 41.5869C144.777 41.9819 143.081 44.8124 141.251 47.0996C140.486 48.0513 139.691 48.9684 138.892 49.8877C138.625 50.201 138.357 50.5151 138.082 50.8379C137.036 52.0617 135.984 53.279 134.931 54.4961C134.15 55.3997 133.371 56.3052 132.595 57.2139C132.444 57.3917 132.291 57.5697 132.135 57.7529C131.719 58.2403 131.303 58.728 130.887 59.2158C129.003 61.3805 127.745 62.7837 124.879 62.8994C122.665 62.8349 121.326 62.1553 119.638 60.6787C117.887 58.3902 117.557 56.6126 117.532 53.6445C117.682 52.5723 117.873 51.9966 118.329 51.0596C118.5 50.7058 118.499 50.7056 118.674 50.3447C118.761 50.1667 118.849 49.9881 118.939 49.8047C118.605 49.9253 118.27 50.0466 117.926 50.1709C116.665 50.6235 115.401 51.0671 114.136 51.5078C113.593 51.6986 113.05 51.8912 112.509 52.0869C104.97 54.8059 104.97 54.8058 101.78 53.3174C100.197 52.3434 99.0924 50.8922 98.3074 49.1406C97.713 45.7506 98.6064 42.7874 100.244 39.834C102.027 37.1186 104.146 34.8548 106.595 32.8301C108.701 31.0718 110.006 29.159 110.432 26.29C110.487 25.7984 110.539 25.3065 110.59 24.8145C110.651 24.2737 110.713 23.7331 110.775 23.1924C110.87 22.3477 110.962 21.5027 111.051 20.6572C111.694 14.5818 111.693 14.5811 113.349 12.2852C113.543 12.0126 113.736 11.7398 113.935 11.459C114.12 11.2592 114.305 11.0594 114.495 10.8535C114.675 10.6495 114.856 10.4456 115.042 10.2354Z" stroke="#1E1E1E"/>
<path d="M68.5723 117.809C71.5114 116.022 74.4345 116.079 77.3262 117.871C79.3211 119.677 80.2778 121.728 80.5674 124.47C80.4672 126.741 79.6149 128.804 78.1807 130.468C76.3498 132.226 74.4228 132.702 71.9873 132.615C69.8728 132.288 68.2366 131.288 66.9229 129.492C65.5312 127.347 65.3069 125.414 65.5254 122.852C65.991 120.697 66.9324 119.172 68.5723 117.809ZM73.9102 122.852C72.8205 122.703 72.2818 122.64 71.4258 123.412C71.0362 124.178 71.0361 124.178 71.2705 125.051C71.691 125.888 71.691 125.888 72.4736 126.338C73.2898 126.589 73.2903 126.588 74.0068 126.172C74.6173 125.521 74.6175 125.521 74.6475 124.491C74.6208 123.477 74.621 123.476 73.9102 122.852Z" fill="#1E1E1E"/>
<path d="M68.5723 117.809C71.5114 116.022 74.4345 116.079 77.3262 117.871C79.3211 119.677 80.2778 121.728 80.5674 124.47C80.4672 126.741 79.6149 128.804 78.1807 130.468C76.3498 132.226 74.4228 132.702 71.9873 132.615C69.8728 132.288 68.2366 131.288 66.9229 129.492C65.5312 127.347 65.3069 125.414 65.5254 122.852C65.991 120.697 66.9324 119.172 68.5723 117.809ZM73.9102 122.852C72.8205 122.703 72.2818 122.64 71.4258 123.412C71.0362 124.178 71.0361 124.178 71.2705 125.051C71.691 125.888 71.691 125.888 72.4736 126.338C73.2898 126.589 73.2903 126.588 74.0068 126.172C74.6173 125.521 74.6175 125.521 74.6475 124.491C74.6208 123.477 74.621 123.476 73.9102 122.852Z" stroke="#1E1E1E"/>
<path d="M112.981 65.4512C114.194 64.1913 115.189 64.332 116.766 64.7461C117.747 65.6602 117.979 66.1894 118.163 67.5684C117.98 68.9376 117.727 69.4711 116.766 70.3906C115.732 70.7434 115.117 70.7813 114.068 70.4941C113.225 69.9829 112.862 69.6543 112.418 68.7305C112.252 67.3332 112.273 66.6521 112.981 65.4512Z" fill="#1E1E1E"/>
<path d="M112.981 65.4512C114.194 64.1913 115.189 64.332 116.766 64.7461C117.747 65.6602 117.979 66.1894 118.163 67.5684C117.98 68.9376 117.727 69.4711 116.766 70.3906C115.732 70.7434 115.117 70.7813 114.068 70.4941C113.225 69.9829 112.862 69.6543 112.418 68.7305C112.252 67.3332 112.273 66.6521 112.981 65.4512Z" stroke="#1E1E1E"/>
<path d="M102.741 90.1982C103.412 90.3124 103.412 90.3123 104.188 90.8311C104.819 91.9264 104.965 92.6769 104.965 93.9648C104.519 95.0851 104.518 95.0855 103.723 95.957C102.514 96.439 101.556 96.4071 100.346 95.957C99.429 95.0345 99.2558 94.287 99.0645 92.9688C99.6013 90.673 100.652 90.1111 102.741 90.1982Z" fill="#1E1E1E"/>
<path d="M102.741 90.1982C103.412 90.3124 103.412 90.3123 104.188 90.8311C104.819 91.9264 104.965 92.6769 104.965 93.9648C104.519 95.0851 104.518 95.0855 103.723 95.957C102.514 96.439 101.556 96.4071 100.346 95.957C99.429 95.0345 99.2558 94.287 99.0645 92.9688C99.6013 90.673 100.652 90.1111 102.741 90.1982Z" stroke="#1E1E1E"/>
<path d="M103.722 102.598C104.859 100.775 105.849 100.646 107.76 100.938C108.515 101.558 108.89 102.027 109.312 102.93C109.446 104.215 109.411 104.764 108.73 105.855C107.948 106.716 107.689 106.891 106.576 106.997C105.464 106.904 104.92 106.623 104.033 105.918C103.531 104.845 103.544 103.758 103.722 102.598Z" fill="#1E1E1E"/>
<path d="M103.722 102.598C104.859 100.775 105.849 100.646 107.76 100.938C108.515 101.558 108.89 102.027 109.312 102.93C109.446 104.215 109.411 104.764 108.73 105.855C107.948 106.716 107.689 106.891 106.576 106.997C105.464 106.904 104.92 106.623 104.033 105.918C103.531 104.845 103.544 103.758 103.722 102.598Z" stroke="#1E1E1E"/>
<path d="M108.963 92.3672C109.995 91.2317 110.648 91.1862 112.108 91.3086C113.546 92.0603 113.547 92.0606 113.971 92.9688C114.184 95.2832 114.184 95.2836 113.35 96.6211C112.06 97.5409 111.466 97.5191 109.934 97.2852C109.179 96.6643 108.803 96.1954 108.381 95.293C108.248 94.0074 108.283 93.4586 108.963 92.3672Z" fill="#1E1E1E"/>
<path d="M108.963 92.3672C109.995 91.2317 110.648 91.1862 112.108 91.3086C113.546 92.0603 113.547 92.0606 113.971 92.9688C114.184 95.2832 114.184 95.2836 113.35 96.6211C112.06 97.5409 111.466 97.5191 109.934 97.2852C109.179 96.6643 108.803 96.1954 108.381 95.293C108.248 94.0074 108.283 93.4586 108.963 92.3672Z" stroke="#1E1E1E"/>
<path d="M100.306 65.4102C101.245 64.0304 102.884 64.1679 104.343 64.4141C105.139 64.8913 105.139 64.8916 105.585 65.7422C105.836 67.0124 105.909 68.1706 105.253 69.3047C104.615 69.9707 103.979 70.3571 103.089 70.4736C101.95 70.4006 101.351 70.1523 100.443 69.3945C99.8142 67.9917 99.9015 66.8876 100.306 65.4102Z" fill="#1E1E1E"/>
<path d="M100.306 65.4102C101.245 64.0304 102.884 64.1679 104.343 64.4141C105.139 64.8913 105.139 64.8916 105.585 65.7422C105.836 67.0124 105.909 68.1706 105.253 69.3047C104.615 69.9707 103.979 70.3571 103.089 70.4736C101.95 70.4006 101.351 70.1523 100.443 69.3945C99.8142 67.9917 99.9015 66.8876 100.306 65.4102Z" stroke="#1E1E1E"/>
<path d="M107.76 56.7772C109.47 57.8606 109.47 57.8606 109.794 59.0807C109.875 60.3798 109.688 60.99 109.002 62.0897C107.968 62.8267 107.406 63.0046 106.188 62.9133C105.099 62.6246 104.651 62.063 104.033 61.0936C103.819 59.665 103.873 59.0319 104.616 57.8148C105.646 56.7128 106.315 56.599 107.76 56.7772Z" fill="#1E1E1E"/>
</svg>
